<?xml version="1.0" encoding="utf-8"?>
<!-- Generator: Adobe Illustrator 19.0.0, SVG Export Plug-In . SVG Version: 6.00 Build 0)  -->
<svg version="1.1" id="Support" xmlns="http://www.w3.org/2000/svg" xmlns:xlink="http://www.w3.org/1999/xlink" x="0px" y="0px"
	 viewBox="0 0 256 256" style="enable-background:new 0 0 256 256;" xml:space="preserve">
<style type="text/css">
	.st0{fill:#E2EDFB;}
	.st1{fill:#FFFFFF;}
	.st2{fill:#002DAA;}
	.st3{fill:#D1E1F2;}
	.st4{fill:#9FC2F1;}
	.st5{fill:#70A4E9;}
	.st6{fill:#1067DB;}
	.st7{fill:#CFE1F8;}
	.st8{fill:#EEF4FC;}
	.st9{opacity:0.3;}
	.st10{fill:#002280;}
	.st11{fill:#4085E2;}
	.st12{fill:#B3CDFA;}
	.st13{fill:#E1EBFD;}
	.st14{fill:#FF5722;}
	.st15{opacity:0.57;}
	.st16{fill:#BF411A;}
</style>
<g id="XMLID_2363_">
	<g id="XMLID_2633_">
		<path id="XMLID_2634_" class="st0" d="M207.2,122.4c-3.8-4.6-9.2-7.9-15-9.1c-5.1-1.1-10.5-0.8-15.2-3.1
			c-4.2-2.1-7.2-6.2-8.9-10.6c-3.5-9.1-2.2-18.1-10.1-25.2c-4.5-4.1-10.6-5.9-16.7-6.4c-12.2-1.1-24.8,2.7-34.5,10.2
			c-10.6,8.3-14.4,18.4-17.7,30.7c-3.6,13.5-12.6,7.8-23.3,7.4c-8.7-0.3-17.7,4.6-22.3,11.9c-5,8-5.2,18.2-2.6,27.3
			c2.4,8.6,7.5,23.3,16.6,26.1c4.6,1.4,9.8,1.8,14.1,4.2c1.8,1,3.1,2.9,5,3.5c1.9,0.6,4.3-0.3,6.2-0.3c8.5,0,17.1,0.1,25.6,0.1
			c20.3,0.1,40.7,0.2,61,0.2c0,0,0,0,0,0c4,0,9.3,0.8,13-0.2c-2,0.5,1.6-7.6,1.8-7.9c1.6-2.6,4.3-5.2,6.6-7.3c4-3.8,9-5.9,13.1-9.4
			c9.2-8,11.9-25.7,6.7-36.5C209.8,125.9,208.6,124.1,207.2,122.4z"/>
	</g>
	<g id="XMLID_2622_">
		<g id="XMLID_2631_">
			<path id="XMLID_2632_" class="st1" d="M174,84c0-1.6-1.3-2.9-2.9-2.9c-0.4,0-0.8,0.1-1.2,0.3c-0.5-1.1-1.6-1.9-2.8-2.2
				c0.1-0.3,0.2-0.6,0.2-0.9c0-2.6-2.1-4.8-4.8-4.8c-1.3,0-2.4,0.5-3.2,1.3c-0.3-4.6-4.1-8.2-8.7-8.2c-4,0-7.4,2.7-8.4,6.5
				c-0.4-0.1-0.8-0.1-1.2-0.1c-2.8,0-5.1,1.9-5.8,4.5c-0.6-0.3-1.3-0.4-2-0.4c-3,0-5.5,2.5-5.5,5.5c0,1,0.4,1.9,0.9,2.8h45.3
				C173.8,85,174,84.5,174,84z"/>
		</g>
		<g id="XMLID_2629_">
			<path id="XMLID_2630_" class="st2" d="M174,85.6h-33.3c-0.1,0-0.2-0.1-0.2-0.2c0-0.1,0.1-0.2,0.2-0.2H174c0.1,0,0.2,0.1,0.2,0.2
				C174.2,85.5,174.1,85.6,174,85.6z"/>
		</g>
		<g id="XMLID_2627_">
			<path id="XMLID_2628_" class="st2" d="M143.6,85.6h-15.1c-0.1,0-0.2-0.1-0.2-0.2c0-0.1,0.1-0.2,0.2-0.2h15.1
				c0.1,0,0.2,0.1,0.2,0.2C143.8,85.5,143.7,85.6,143.6,85.6z"/>
		</g>
		<g id="XMLID_2625_">
			<path id="XMLID_2626_" class="st3" d="M165.9,79.9c-1.3,0.9-3.1,0.6-4-0.7c-0.2-0.3-0.3-0.6-0.4-0.9c0,0.5,0.2,1.1,0.5,1.6
				c0.9,1.3,2.7,1.6,4,0.7l0,0c1-0.7,1.4-2,1.1-3.1C167.2,78.4,166.7,79.4,165.9,79.9z"/>
		</g>
		<g id="XMLID_2623_">
			<path id="XMLID_2624_" class="st2" d="M167.2,78.6c-0.1,0-0.2-0.1-0.2-0.2c0-2.5-2.1-4.6-4.6-4.6c-1.1,0-2.2,0.4-3.1,1.2
				l-0.3,0.3l0-0.4c-0.3-4.5-4.1-8-8.5-8c-3.8,0-7.2,2.6-8.3,6.3c0,0.1-0.1,0.2-0.2,0.1c-0.1,0-0.2-0.1-0.1-0.2
				c1.1-3.9,4.6-6.6,8.6-6.6c4.6,0,8.4,3.5,8.9,8c0.9-0.7,2-1.1,3.1-1.1c2.8,0,5,2.2,5,5C167.4,78.5,167.4,78.6,167.2,78.6z"/>
		</g>
	</g>
	<g id="XMLID_2611_">
		<g id="XMLID_2620_">
			<path id="XMLID_2621_" class="st1" d="M217.8,146.8c0-1.5-1.2-2.7-2.7-2.7c-0.4,0-0.8,0.1-1.1,0.3c-0.5-1-1.5-1.8-2.7-2
				c0.1-0.3,0.2-0.5,0.2-0.8c0-2.5-2-4.5-4.5-4.5c-1.2,0-2.2,0.5-3,1.2c-0.3-4.3-3.8-7.7-8.2-7.7c-3.8,0-6.9,2.6-7.9,6
				c-0.4-0.1-0.7-0.1-1.1-0.1c-2.6,0-4.8,1.8-5.5,4.2c-0.6-0.2-1.2-0.4-1.9-0.4c-2.8,0-5.1,2.3-5.1,5.1c0,1,0.3,1.8,0.8,2.6h42.4
				C217.6,147.7,217.8,147.3,217.8,146.8z"/>
		</g>
		<g id="XMLID_2618_">
			<path id="XMLID_2619_" class="st2" d="M217.8,148.3h-31.2c-0.1,0-0.2-0.1-0.2-0.2s0.1-0.2,0.2-0.2h31.2c0.1,0,0.2,0.1,0.2,0.2
				S217.9,148.3,217.8,148.3z"/>
		</g>
		<g id="XMLID_2616_">
			<path id="XMLID_2617_" class="st2" d="M189.3,148.3h-14.2c-0.1,0-0.2-0.1-0.2-0.2c0-0.1,0.1-0.2,0.2-0.2h14.2
				c0.1,0,0.2,0.1,0.2,0.2C189.5,148.2,189.4,148.3,189.3,148.3z"/>
		</g>
		<g id="XMLID_2614_">
			<path id="XMLID_2615_" class="st3" d="M210.2,143c-1.2,0.9-2.9,0.6-3.7-0.6c-0.2-0.2-0.3-0.5-0.4-0.8c0,0.5,0.2,1,0.5,1.5
				c0.9,1.2,2.5,1.5,3.7,0.6l0,0c1-0.7,1.3-1.9,1-2.9C211.4,141.6,211,142.4,210.2,143z"/>
		</g>
		<g id="XMLID_2612_">
			<path id="XMLID_2613_" class="st2" d="M211.5,141.7c-0.1,0-0.2-0.1-0.2-0.2c0-2.4-1.9-4.3-4.3-4.3c-1.1,0-2.1,0.4-2.9,1.2
				l-0.3,0.3l0-0.4c-0.3-4.2-3.8-7.5-8-7.5c-3.6,0-6.8,2.4-7.7,5.9c0,0.1-0.1,0.2-0.2,0.1c-0.1,0-0.2-0.1-0.1-0.2
				c1-3.6,4.3-6.2,8.1-6.2c4.3,0,7.9,3.3,8.4,7.5c0.8-0.7,1.8-1,2.9-1c2.6,0,4.7,2.1,4.7,4.7C211.7,141.6,211.6,141.7,211.5,141.7z"
				/>
		</g>
	</g>
	<g id="XMLID_2600_">
		<g id="XMLID_2609_">
			<path id="XMLID_2610_" class="st1" d="M110.9,109.8c0-1.5-1.2-2.7-2.7-2.7c-0.4,0-0.8,0.1-1.1,0.3c-0.5-1-1.5-1.8-2.7-2
				c0.1-0.3,0.2-0.5,0.2-0.8c0-2.5-2-4.5-4.5-4.5c-1.2,0-2.2,0.5-3,1.2c-0.3-4.3-3.8-7.7-8.2-7.7c-3.8,0-6.9,2.6-7.9,6
				c-0.4-0.1-0.7-0.1-1.1-0.1c-2.6,0-4.8,1.8-5.5,4.2c-0.6-0.2-1.2-0.4-1.9-0.4c-2.8,0-5.1,2.3-5.1,5.1c0,1,0.3,1.8,0.8,2.6h42.4
				C110.7,110.7,110.9,110.2,110.9,109.8z"/>
		</g>
		<g id="XMLID_2607_">
			<path id="XMLID_2608_" class="st2" d="M110.9,111.3H79.7c-0.1,0-0.2-0.1-0.2-0.2c0-0.1,0.1-0.2,0.2-0.2h31.2
				c0.1,0,0.2,0.1,0.2,0.2C111.1,111.2,111,111.3,110.9,111.3z"/>
		</g>
		<g id="XMLID_2605_">
			<path id="XMLID_2606_" class="st2" d="M82.4,111.3H68.2c-0.1,0-0.2-0.1-0.2-0.2c0-0.1,0.1-0.2,0.2-0.2h14.2
				c0.1,0,0.2,0.1,0.2,0.2C82.6,111.2,82.5,111.3,82.4,111.3z"/>
		</g>
		<g id="XMLID_2603_">
			<path id="XMLID_2604_" class="st3" d="M103.3,106c-1.2,0.9-2.9,0.6-3.7-0.6c-0.2-0.2-0.3-0.5-0.4-0.8c0,0.5,0.2,1,0.5,1.5
				c0.9,1.2,2.5,1.5,3.7,0.6l0,0c1-0.7,1.3-1.9,1-2.9C104.5,104.6,104.1,105.4,103.3,106z"/>
		</g>
		<g id="XMLID_2601_">
			<path id="XMLID_2602_" class="st2" d="M104.5,104.7c-0.1,0-0.2-0.1-0.2-0.2c0-2.4-1.9-4.3-4.3-4.3c-1.1,0-2.1,0.4-2.9,1.2
				l-0.3,0.3l0-0.4c-0.3-4.2-3.8-7.5-8-7.5c-3.6,0-6.8,2.4-7.7,5.9c0,0.1-0.1,0.2-0.2,0.1c-0.1,0-0.2-0.1-0.1-0.2
				c1-3.6,4.3-6.2,8.1-6.2c4.3,0,7.9,3.3,8.4,7.5c0.8-0.7,1.8-1,2.9-1c2.6,0,4.7,2.1,4.7,4.7C104.7,104.6,104.7,104.7,104.5,104.7z"
				/>
		</g>
	</g>
	<g id="XMLID_2577_">
		<g id="XMLID_2598_">
			<path id="XMLID_2599_" class="st4" d="M75.5,166.8c0,0,10.1-14.4,0.7-25.9c0,0,0.3,5.2-2.5,9C73.7,149.9,69.2,160.5,75.5,166.8z"
				/>
		</g>
		<g id="XMLID_2596_">
			<path id="XMLID_2597_" class="st4" d="M57.5,175.6c0,0,5,8.8,16.4,1c0,0-0.5-3.7-7.2-2.6c-1.1,0.2-2,0.6-2.9,1.2
				C62.6,175.9,60.4,176.8,57.5,175.6z"/>
		</g>
		<g id="XMLID_2594_">
			<path id="XMLID_2595_" class="st5" d="M67.1,174.4c-1.1,0.2-2,0.6-2.9,1.2c-1.2,0.7-3.4,1.6-6.3,0.4c0,0,0.2,0.4,0.7,1
				c-0.7-0.7-1-1.3-1-1.3c2.9,1.2,5.1,0.4,6.3-0.4c0.9-0.6,1.9-1,2.9-1.2c4.2-0.7,6,0.5,6.7,1.5C72.5,174.6,70.7,173.8,67.1,174.4z"
				/>
		</g>
		<g id="XMLID_2592_">
			<path id="XMLID_2593_" class="st4" d="M53.6,154.6c0,0,20.9,1.2,21.4,17.6c0,0-3.5,0.9-8.5-1.8c-3.3-1.8-5.9-4.7-7.6-8.1
				C58,160.4,56.3,157.7,53.6,154.6z"/>
		</g>
		<g id="XMLID_2590_">
			<path id="XMLID_2591_" class="st5" d="M58.9,162.3c-0.9-1.9-2.6-4.6-5.3-7.7c0,0-0.1,0,0.8,0.1c2.3,2.7,3.6,4.8,4.4,6.6
				c1.7,3.4,4.7,7.2,8,9c3.8,2.1,7,2.2,8.2,2c0,0.2,0-0.2,0,0c0,0-3.5,0.9-8.5-1.8C63.2,168.6,60.6,165.7,58.9,162.3z"/>
		</g>
		<g id="XMLID_2588_">
			<path id="XMLID_2589_" class="st4" d="M79.7,160.8c0,0,2.4-5.9,10.8-2.9c0,0-8.1,2.5-5.4,6.1c0,0,2.3,5.4-0.7,9.3
				C84.5,173.2,75.5,167.3,79.7,160.8z"/>
		</g>
		<g id="XMLID_2586_">
			<path id="XMLID_2587_" class="st5" d="M80.2,161.1c-3.7,5.6,2.6,10.9,4.3,12.1c0,0,0,0,0,0c0,0-8.9-5.9-4.7-12.4
				c0,0,2.4-5.9,10.8-2.9c0,0-0.1,0-0.2,0.1C82.5,155.5,80.2,161.1,80.2,161.1z"/>
		</g>
		<g id="XMLID_2584_">
			<path id="XMLID_2585_" class="st2" d="M90.3,182.5C90.3,182.5,90.3,182.5,90.3,182.5c-2.3-2.8-5.6-4.5-8.8-6
				c-2.4-1.2-4.8-2.4-6.8-4c-1.1-0.9-2.2-2-3.1-3.1l-0.3-0.4c-3.9-4.2-8.2-8.1-12.6-11.8c0,0,0-0.1,0-0.1c0,0,0.1,0,0.1,0
				c4.4,3.7,8.6,7.6,12.6,11.8l0.3,0.4c1,1,2,2.1,3.1,3c2,1.7,4.4,2.9,6.8,4c3.2,1.6,6.5,3.2,8.8,6.1
				C90.5,182.4,90.4,182.5,90.3,182.5C90.4,182.5,90.4,182.5,90.3,182.5z"/>
		</g>
		<g id="XMLID_2582_">
			<path id="XMLID_2583_" class="st2" d="M87.6,183.7C87.6,183.7,87.5,183.7,87.6,183.7c-2.4-3.5-7.1-7.3-11.4-7.5
				c-1.8-0.1-3.6,0.3-5.4,0.7c-2.3,0.5-4.6,1-6.9,0.5c-0.1,0-0.1-0.1-0.1-0.1c0-0.1,0.1-0.1,0.1-0.1c2.2,0.5,4.5,0,6.8-0.5
				c1.8-0.4,3.6-0.8,5.4-0.7c4.3,0.2,9.1,4.1,11.5,7.6C87.7,183.6,87.7,183.7,87.6,183.7C87.6,183.7,87.6,183.7,87.6,183.7z"/>
		</g>
		<g id="XMLID_2580_">
			<path id="XMLID_2581_" class="st2" d="M85.8,179.2C85.8,179.2,85.7,179.1,85.8,179.2c-0.7-2.4-2.5-4.3-4-5.6
				c-0.4-0.3-0.8-0.7-1.1-1c-1.3-1.2-2.7-2.4-3.7-3.9c-1.6-2.3-2.3-5.3-2-8.1c0.2-1.8,0.9-3.6,1.6-5.2c0.2-0.6,0.5-1.3,0.7-1.9
				c1.1-3,1.2-5.3,0.5-7.3c0-0.1,0-0.1,0.1-0.1c0.1,0,0.1,0,0.1,0.1c0.7,2,0.6,4.4-0.5,7.4c-0.2,0.6-0.5,1.3-0.7,1.9
				c-0.7,1.7-1.3,3.4-1.6,5.2c-0.4,2.8,0.3,5.7,1.9,8c1,1.5,2.4,2.7,3.7,3.9c0.4,0.3,0.8,0.7,1.1,1c1.5,1.4,3.3,3.3,3.9,5.6
				C85.9,179.1,85.9,179.1,85.8,179.2C85.8,179.2,85.8,179.2,85.8,179.2z"/>
		</g>
		<g id="XMLID_2578_">
			<path id="XMLID_2579_" class="st2" d="M87.6,183.7C87.6,183.7,87.5,183.7,87.6,183.7c-1.5-2.1-2-4.6-2.4-6.9L82.8,164
				c-0.1-0.6-0.2-1.2-0.1-1.8c0.2-0.8,0.7-1.5,1.2-2c0.9-0.9,1.9-1.6,3-2.2c0,0,0.1,0,0.1,0c0,0,0,0.1,0,0.1
				c-1.1,0.5-2.1,1.3-2.9,2.1c-0.5,0.5-1,1.1-1.2,1.9c-0.1,0.6,0,1.2,0.1,1.7l2.4,12.8c0.4,2.2,0.9,4.8,2.3,6.8
				C87.7,183.6,87.7,183.7,87.6,183.7C87.6,183.7,87.6,183.7,87.6,183.7z"/>
		</g>
	</g>
	<g id="XMLID_2544_">
		<g id="XMLID_2575_">
			<path id="XMLID_2576_" class="st1" d="M191.3,116.4l-88.1,0.5c-1.3,0-2.5,1-2.7,2.3l-10.9,66.6h93.1l10.9-66.6
				c0.1-0.8-0.2-1.6-0.9-2L191.3,116.4z"/>
		</g>
		<g id="XMLID_2571_">
			<path id="XMLID_2572_" class="st2" d="M183,186.1H89.4l0-0.2l10.9-66.6c0.2-1.4,1.5-2.5,2.9-2.5l88.1-0.5l1.4,0.9
				c0.8,0.5,1.2,1.3,1,2.2L183,186.1z M89.9,185.7h92.7l10.9-66.4c0.1-0.7-0.2-1.4-0.8-1.8l-1.3-0.8l-88,0.5c-1.2,0-2.3,1-2.5,2.2
				L89.9,185.7z"/>
		</g>
		<g id="XMLID_2569_">
			<path id="XMLID_2570_" class="st6" d="M181.6,185.2H88.5l10.9-66.6c0.2-1.3,1.4-2.3,2.7-2.3h88.4c1.3,0,2.2,1,2,2.3L181.6,185.2z
				"/>
		</g>
		<g id="XMLID_2567_">
			<path id="XMLID_2568_" class="st2" d="M88.5,185.4C88.5,185.4,88.5,185.4,88.5,185.4c-0.1,0-0.2-0.1-0.2-0.2l10.9-66.6
				c0.2-1.4,1.5-2.5,2.9-2.5h88.4c0.7,0,1.3,0.3,1.7,0.7c0.4,0.5,0.6,1.1,0.5,1.8l-10,61.3c0,0.1-0.1,0.2-0.2,0.2
				c-0.1,0-0.2-0.1-0.2-0.2l10-61.3c0.1-0.6,0-1.1-0.4-1.5c-0.3-0.4-0.8-0.6-1.4-0.6h-88.4c-1.2,0-2.3,1-2.5,2.2l-10.9,66.6
				C88.7,185.4,88.6,185.4,88.5,185.4z"/>
		</g>
		<g id="XMLID_2565_">
			<polygon id="XMLID_2566_" class="st7" points="92.9,181.5 102.9,120 188.5,120 178.4,181.5 			"/>
		</g>
		<g id="XMLID_2563_">
			<path id="XMLID_2564_" class="st1" d="M179.8,189.3H52.5c-2.1,0-3.8-1.7-3.8-3.8l0,0c0-2.1,1.7-3.8,3.8-3.8h127.4
				c2.1,0,3.8,1.7,3.8,3.8l0,0C183.6,187.6,181.9,189.3,179.8,189.3z"/>
		</g>
		<g id="XMLID_2561_">
			<path id="XMLID_2562_" class="st8" d="M179.8,186.7H52.5c-1.6,0-3-1-3.5-2.4c-0.2,0.4-0.3,0.9-0.3,1.3c0,2.1,1.7,3.8,3.8,3.8
				h127.4c2.1,0,3.8-1.7,3.8-3.8c0-0.5-0.1-0.9-0.3-1.3C182.8,185.6,181.4,186.7,179.8,186.7z"/>
		</g>
		<g id="XMLID_2559_">
			<path id="XMLID_2560_" class="st7" d="M88.5,184.2H80c-1.7,0-3.2-0.9-3.9-2.4l0,0h16.3l0,0C91.7,183.3,90.2,184.2,88.5,184.2z"/>
		</g>
		<g id="XMLID_2555_">
			<path id="XMLID_2556_" class="st2" d="M179.8,189.5H52.5c-2.2,0-4-1.8-4-4c0-2.2,1.8-4,4-4h127.4c2.2,0,4,1.8,4,4
				C183.8,187.7,182,189.5,179.8,189.5z M52.5,182c-2,0-3.6,1.6-3.6,3.6s1.6,3.6,3.6,3.6h127.4c2,0,3.6-1.6,3.6-3.6
				s-1.6-3.6-3.6-3.6H52.5z"/>
		</g>
		<g id="XMLID_2553_">
			<path id="XMLID_2554_" class="st1" d="M179.8,189.3h-66.4c-2.1,0-3.8-1.7-3.8-3.8l0,0c0-2.1,1.7-3.8,3.8-3.8h66.4
				c2.1,0,3.8,1.7,3.8,3.8l0,0C183.6,187.6,181.9,189.3,179.8,189.3z"/>
		</g>
		<g id="XMLID_2549_">
			<path id="XMLID_2550_" class="st2" d="M179.8,189.5h-66.4c-2.2,0-4-1.8-4-4c0-2.2,1.8-4,4-4h66.4c2.2,0,4,1.8,4,4
				C183.8,187.7,182,189.5,179.8,189.5z M113.4,182c-2,0-3.6,1.6-3.6,3.6s1.6,3.6,3.6,3.6h66.4c2,0,3.6-1.6,3.6-3.6
				s-1.6-3.6-3.6-3.6H113.4z"/>
		</g>
		<g id="XMLID_2547_">
			<rect id="XMLID_2548_" x="171.1" y="184.7" class="st2" width="5.8" height="1.7"/>
		</g>
		<g id="XMLID_2545_">
			<rect id="XMLID_2546_" x="164.1" y="184.7" class="st2" width="5.8" height="1.7"/>
		</g>
	</g>
	<g id="XMLID_2542_">
		<path id="XMLID_2543_" class="st2" d="M220.9,189.5H35.1c-0.1,0-0.2-0.1-0.2-0.2c0-0.1,0.1-0.2,0.2-0.2h185.8
			c0.1,0,0.2,0.1,0.2,0.2C221.1,189.4,221,189.5,220.9,189.5z"/>
	</g>
	<g id="XMLID_2540_" class="st9">
		<path id="XMLID_2541_" class="st10" d="M102.4,116.1c-1.4,0-2.7,1.1-2.9,2.5l-7.2,43.8h74.8c1.6,0,2.9-1.1,3.1-2.7l7.2-43.7H102.4
			z"/>
	</g>
	<g id="XMLID_2538_">
		<path id="XMLID_2539_" class="st6" d="M163.6,158.2H82.3c-2,0-3.4-1.8-3.1-3.7l7.4-45.1c0.3-1.5,1.6-2.7,3.1-2.7H171
			c2,0,3.4,1.8,3.1,3.7l-7.4,45.1C166.4,157.1,165.1,158.2,163.6,158.2z"/>
	</g>
	<g id="XMLID_2523_">
		<g id="XMLID_2536_">
			<path id="XMLID_2537_" class="st1" d="M190,189.3L190,189.3c5.7,0,10.3-4.6,10.3-10.3v-11.8h-20.6V179
				C179.7,184.7,184.3,189.3,190,189.3z"/>
		</g>
		<g id="XMLID_2534_">
			<path id="XMLID_2535_" class="st8" d="M188.1,177.8c0.7-0.5,1.5-1.2,1.4-2c-0.1-0.5-0.4-0.9-0.8-1.2c-2.2-2-3.4-2.8-4.6-5.5
				c-1.4,0.7-2.2,2.2-2.7,3.7c-0.4,1.5-0.4,3.1-0.4,4.7c0,3.6-0.6,10.5,4.8,10.1c0.9-0.1,2-0.4,2.4-1.2c0.4-0.7,0.3-1.5,0.2-2.2
				c-0.2-1.7-0.6-3.7-2.1-4.5C186.5,178.8,187.3,178.3,188.1,177.8z"/>
		</g>
		<g id="XMLID_2530_">
			<path id="XMLID_2531_" class="st2" d="M193.4,189.5h-6.8c-3.9,0-7.1-3.2-7.1-7.1V167h21v15.4
				C200.5,186.3,197.3,189.5,193.4,189.5z M179.9,167.4v15c0,3.7,3,6.7,6.7,6.7h6.8c3.7,0,6.7-3,6.7-6.7v-15H179.9z"/>
		</g>
		<g id="XMLID_2528_">
			<path id="XMLID_2529_" class="st1" d="M199.9,170h-4.9v0.6h0.6c3.2,0,5.7,2.6,5.7,5.7s-2.6,5.7-5.7,5.7h-0.6v0.6h4.9
				c3.2,0,5.7-2.6,5.7-5.7v-1.2C205.6,172.5,203,170,199.9,170z"/>
		</g>
		<g id="XMLID_2526_">
			<path id="XMLID_2527_" class="st2" d="M195.5,182.2h-0.6v-0.4h0.6c3.1,0,5.5-2.5,5.5-5.5c0-3.1-2.5-5.5-5.5-5.5h-0.6v-0.4h0.6
				c3.3,0,5.9,2.7,5.9,5.9C201.5,179.6,198.8,182.2,195.5,182.2z"/>
		</g>
		<g id="XMLID_2524_">
			<path id="XMLID_2525_" class="st2" d="M199.9,182.8h-4.9v-0.4h4.9c3.1,0,5.5-2.5,5.5-5.5v-1.2c0-3.1-2.5-5.5-5.5-5.5h-4.9v-0.4
				h4.9c3.3,0,5.9,2.7,5.9,5.9v1.2C205.8,180.2,203.2,182.8,199.9,182.8z"/>
		</g>
	</g>
	<g id="XMLID_2521_" class="st9">
		<path id="XMLID_2522_" class="st10" d="M167,130.9h-18.8l-1.1,6.7c-0.2,1.2,0.8,2.3,2,2.3h20.2l0.9-5.3
			C170.5,132.7,169,130.9,167,130.9z"/>
	</g>
	<g id="XMLID_2499_">
		<g id="XMLID_2519_">
			<path id="XMLID_2520_" class="st2" d="M145.8,136.4h65.8c0.8,0,1.4-0.5,1.6-1.3l1.8-10.7c0.2-1.2-0.8-2.3-2-2.3h-65.8
				c-0.8,0-1.4,0.5-1.6,1.3l-1.8,10.7C143.6,135.3,144.6,136.4,145.8,136.4z"/>
		</g>
		<g id="XMLID_2512_">
			<g id="XMLID_2517_">
				<path id="XMLID_2518_" class="st11" d="M163.5,127.2h30.2c0.1,0,0.2-0.1,0.2-0.2l0.4-1.2c0-0.1-0.1-0.3-0.2-0.3h-30.2
					c-0.1,0-0.2,0.1-0.2,0.2l-0.4,1.2C163.3,127,163.4,127.2,163.5,127.2z"/>
			</g>
			<g id="XMLID_2515_">
				<path id="XMLID_2516_" class="st1" d="M194.6,131h12.9c0.1,0,0.2-0.1,0.2-0.2l0.4-1.2c0-0.1-0.1-0.3-0.2-0.3h-12.9
					c-0.1,0-0.2,0.1-0.2,0.2l-0.4,1.2C194.3,130.9,194.4,131,194.6,131z"/>
			</g>
			<g id="XMLID_2513_">
				<path id="XMLID_2514_" class="st1" d="M162.8,131h29c0.1,0,0.2-0.1,0.2-0.2l0.4-1.2c0-0.1-0.1-0.3-0.2-0.3h-29
					c-0.1,0-0.2,0.1-0.2,0.2l-0.4,1.2C162.6,130.9,162.7,131,162.8,131z"/>
			</g>
		</g>
		<g id="XMLID_2500_">
			<g id="XMLID_2505_">
				<g id="XMLID_2509_">
					<path id="XMLID_2510_" class="st1" d="M150,128.1c0.2-0.2,0.3-0.4,0.4-0.6c0-0.2,0-0.4-0.1-0.5c-0.1-0.1-0.3-0.2-0.5-0.2
						c-0.4,0-0.8,0.3-1.2,0.8l-0.9-0.6c0.4-0.4,0.7-0.8,1.1-1c0.4-0.2,0.8-0.3,1.3-0.3s0.9,0.2,1.3,0.5c0.3,0.3,0.4,0.8,0.3,1.3
						c-0.1,0.3-0.2,0.6-0.4,0.9c-0.2,0.3-0.6,0.6-1.1,1.1l-1.3,1.1h2.4l-0.2,1.2h-4.2l0.2-1l2.1-1.8
						C149.5,128.6,149.8,128.3,150,128.1z"/>
				</g>
				<g id="XMLID_2506_">
					<path id="XMLID_2507_" class="st1" d="M154.7,129.2l0.2-1h1.3l-0.2,1h0.7l-0.2,1.2h-0.7l-0.3,1.4h-1.3l0.3-1.4H152l0.2-1
						l2.9-3.5h1.5l-2.7,3.4H154.7z"/>
				</g>
			</g>
			<g id="XMLID_2501_">
				<g id="XMLID_2502_">
					<path id="XMLID_2503_" class="st1" d="M158.8,127.8l-0.3,1.4h-0.7l0.7-3.7h0.7l-0.3,1.3c0.3-0.2,0.5-0.3,0.8-0.3
						c0.3,0,0.5,0.1,0.6,0.3c0.2,0.2,0.2,0.5,0.1,0.8l-0.3,1.6h-0.7l0.3-1.5c0.1-0.4,0-0.6-0.3-0.6c-0.1,0-0.3,0.1-0.4,0.2
						C159,127.5,158.9,127.6,158.8,127.8z"/>
				</g>
			</g>
		</g>
	</g>
	<g id="XMLID_2497_" class="st9">
		<path id="XMLID_2498_" class="st10" d="M109.2,114.9H85.7l-1.9,11.6H108c1,0,1.9-0.7,2-1.7l1.1-7.5
			C111.4,116,110.4,114.9,109.2,114.9z"/>
	</g>
	<g id="XMLID_2483_">
		<g id="XMLID_2495_">
			<path id="XMLID_2496_" class="st1" d="M52.5,121.3l1.1-7.5c0.2-1,1-1.7,2-1.7h50.6c1.3,0,2.2,1.1,2,2.4l-1.1,7.5
				c-0.2,1-1,1.7-2,1.7H54.5C53.3,123.7,52.3,122.6,52.5,121.3z"/>
		</g>
		<g id="XMLID_2493_">
			<path id="XMLID_2494_" class="st12" d="M68.8,115.6l0.2-1.3c0-0.2,0.2-0.3,0.3-0.3h24.8c0.2,0,0.4,0.2,0.3,0.4l-0.2,1.3
				c0,0.2-0.2,0.3-0.3,0.3H69.2C69,116,68.8,115.8,68.8,115.6z"/>
		</g>
		<g id="XMLID_2491_">
			<path id="XMLID_2492_" class="st13" d="M68,120.7l0.2-1.3c0-0.2,0.2-0.3,0.3-0.3h36c0.2,0,0.4,0.2,0.3,0.4l-0.2,1.3
				c0,0.2-0.2,0.3-0.3,0.3h-36C68.2,121.1,68,120.9,68,120.7z"/>
		</g>
		<g id="XMLID_2489_">
			<path id="XMLID_2490_" class="st14" d="M53.7,113.8l-1.1,7.5c-0.2,1.2,0.8,2.4,2,2.4h10.3c0-0.1,0-0.2,0.1-0.3l1.7-11
				c0-0.1,0-0.2,0-0.4H55.7C54.7,112.1,53.8,112.8,53.7,113.8z"/>
		</g>
		<g id="XMLID_2484_">
			<g id="XMLID_2485_">
				<path id="XMLID_2486_" class="st1" d="M58.6,117.3c0.1-0.4,0.1-0.6,0-0.7c-0.1-0.1-0.3-0.2-0.6-0.2l0.1-0.5h0.2
					c0.4,0,0.8,0,1.1,0c0.4,0,0.7-0.1,1.1-0.1l-0.7,4.3c-0.1,0.4-0.1,0.7,0,0.8c0.1,0.1,0.2,0.1,0.5,0.2l-0.1,0.5h-3l0.1-0.5
					c0.3,0,0.5-0.1,0.6-0.2c0.1-0.1,0.2-0.3,0.3-0.7L58.6,117.3z M58.9,114.2c0-0.2,0.1-0.4,0.3-0.6c0.2-0.1,0.4-0.2,0.7-0.2
					c0.3,0,0.5,0.1,0.6,0.2c0.1,0.1,0.2,0.3,0.2,0.6c0,0.2-0.1,0.4-0.3,0.6c-0.2,0.1-0.4,0.2-0.7,0.2c-0.3,0-0.5-0.1-0.7-0.2
					C58.9,114.6,58.8,114.4,58.9,114.2z"/>
			</g>
		</g>
	</g>
	<g id="XMLID_2471_">
		<g id="XMLID_2481_">
			<path id="XMLID_2482_" class="st2" d="M83.9,105.6l-11.9,0.1c-1.7,0-3-1.5-2.8-3.2l2.1-12.4c0.3-1.5,1.6-2.7,3.1-2.7l11.9-0.1
				c1.7,0,3,1.5,2.8,3.2L87,102.9C86.7,104.5,85.4,105.6,83.9,105.6z"/>
		</g>
		<g id="XMLID_2472_">
			<g id="XMLID_2479_">
				<path id="XMLID_2480_" class="st1" d="M80,99.6l-3.8,0.7c-0.3,0.1-0.6-0.2-0.5-0.5l0,0c0-0.2,0.3-0.5,0.5-0.5l3.8-0.7
					c0.3-0.1,0.6,0.2,0.5,0.5l0,0C80.5,99.3,80.2,99.5,80,99.6z"/>
			</g>
			<g id="XMLID_2477_">
				<path id="XMLID_2478_" class="st1" d="M79.7,101.2l-3.8,0.7c-0.3,0.1-0.6-0.2-0.5-0.5l0,0c0-0.2,0.3-0.5,0.5-0.5l3.8-0.7
					c0.3-0.1,0.6,0.2,0.5,0.5l0,0C80.1,100.9,79.9,101.1,79.7,101.2z"/>
			</g>
			<g id="XMLID_2475_">
				<path id="XMLID_2476_" class="st1" d="M82.8,93.8c0.4-2-0.9-3.6-2.9-3.6c-2,0-3.9,1.6-4.3,3.6c-0.2,1.1,0.1,2.1,0.7,2.8
					l-0.4,2.2l4.9-0.9l0.3-1.4C81.9,95.9,82.6,94.9,82.8,93.8z"/>
			</g>
			<g id="XMLID_2473_">
				<path id="XMLID_2474_" class="st1" d="M77.1,102.1c0,0.4,0.3,0.6,0.6,0.6c0.4,0,0.8-0.3,0.9-0.8c0,0,0-0.1,0-0.1L77.1,102.1z"/>
			</g>
		</g>
	</g>
	<g id="XMLID_2469_" class="st9">
		<path id="XMLID_2470_" class="st10" d="M102.3,106.8l0,0.2c-0.2,1,0.5,1.9,1.6,1.9h13.9l4.3,3.6c0.2,0.3,0.7,0.1,0.8-0.3l0.4-2.5
			l0.1-0.8h3.4c1,0,2-0.8,2.2-1.9l0-0.2H102.3z"/>
	</g>
	<g id="XMLID_2457_">
		<g id="XMLID_2467_">
			<path id="XMLID_2468_" class="st6" d="M130.2,89.5l-2.6,15.4c-0.2,1-1.2,1.9-2.2,1.9H122l-0.1,0.8l-0.4,2.5
				c-0.1,0.4-0.6,0.6-0.8,0.3l-4.3-3.6h-13.9c-1,0-1.7-0.8-1.6-1.9l2.6-15.4c0.2-1,1.2-1.9,2.2-1.9h22.9
				C129.6,87.6,130.3,88.4,130.2,89.5z"/>
		</g>
		<g id="XMLID_2465_">
			<path id="XMLID_2466_" class="st1" d="M123.1,102.7h-17.8c-0.2,0-0.4-0.2-0.3-0.4l1.9-11.2c0-0.2,0.2-0.4,0.5-0.4h17.8
				c0.2,0,0.4,0.2,0.3,0.4l-1.9,11.2C123.5,102.6,123.3,102.7,123.1,102.7z"/>
		</g>
		<g id="XMLID_2458_">
			<g id="XMLID_2463_">
				<path id="XMLID_2464_" class="st2" d="M119.2,96.7c-0.5,2.3-2.8,4.1-5,4.1c-2.3,0-3.7-1.8-3.2-4.1c0.5-2.3,2.8-4.1,5-4.1
					C118.3,92.6,119.8,94.5,119.2,96.7z"/>
			</g>
			<g id="XMLID_2461_">
				<path id="XMLID_2462_" class="st1" d="M115,97L115,97c-0.1,0-0.2-0.1-0.2-0.2l0.5-2.3c0-0.1,0.1-0.2,0.2-0.2l0,0
					c0.1,0,0.2,0.1,0.2,0.2l-0.5,2.3C115.2,96.9,115.1,97,115,97z"/>
			</g>
			<g id="XMLID_2459_">
				<path id="XMLID_2460_" class="st1" d="M117,96.8L117,96.8c0-0.1,0-0.2-0.2-0.2h-1.7c-0.1,0-0.2,0.1-0.2,0.2l0,0
					c0,0.1,0,0.2,0.2,0.2h1.7C116.8,97,116.9,96.9,117,96.8z"/>
			</g>
		</g>
	</g>
	<g id="XMLID_2408_">
		<g id="XMLID_2455_">
			<polygon id="XMLID_2456_" class="st1" points="105.5,146.9 103.1,158.2 108.5,158.2 111.4,147.6 			"/>
		</g>
		<g id="XMLID_2453_" class="st9">
			<path id="XMLID_2454_" class="st12" d="M103.1,158.2l1.2,0c1.2-2.6,3.9-9.1,2.6-11.1c-0.2-0.3-1.2-0.2-1.4-0.1L103.1,158.2z"/>
		</g>
		<g id="XMLID_2450_">
			<polygon id="XMLID_2452_" class="st1" points="141.9,146.9 142.4,158.2 137,158.2 135.8,147.6 			"/>
		</g>
		<g id="XMLID_2447_" class="st9">
			<path id="XMLID_2449_" class="st12" d="M141.9,147c-0.3,0-1.2-0.1-1.5,0.1c-1.7,1.9,0,8.4,0.7,11l1.2,0L141.9,147z"/>
		</g>
		<g id="XMLID_2444_">
			<path id="XMLID_2446_" class="st2" d="M137.7,128.9c-0.3-0.4-0.7-0.8-1-1.3c-0.5-0.7-0.8-1.5-0.9-2.4c-0.1-1.6,0.5-3.4,0.2-5
				c-0.3-1.6-1.6-1.9-2.2-3.2c-0.3-0.6-0.3-1.3-0.5-2c-0.2-1.1-0.6-2.1-1.4-2.9c-1.8-1.9-5.8-1.9-8.2-0.9c-2.6,1.1-4.7,3.3-6.3,5.7
				c-1.2,1.8-1.1,3.9-2.5,5.6c-0.7,0.8-1.7,1.4-2.2,2.4c-0.7,1.1-0.7,2.4-0.7,3.7c-0.1,1.2-0.3,2.4-1.2,3.3c-1,1.1-2.4,1.9-2.2,3.6
				c0.1,1.1,0.9,2,1.9,2.5c1,0.5,2.1,0.6,3.2,0.7c2.7,0.1,5.5-0.4,7.7-2.1c0.6-0.5,1.3-1.2,2.1-1.4c0.7-0.2,0.9,0.2,1.5,0.4
				c1.4,0.5,3.5,0.4,4.9-0.3c0.9-0.4,1.7-1.1,2.7-1.1c1.2,0,1.8,1,3.1,0.9c1-0.1,2-0.7,2.5-1.6C139,131.9,138.6,130.1,137.7,128.9z"
				/>
		</g>
		<g id="XMLID_2442_">
			<path id="XMLID_2443_" class="st1" d="M121.2,129.3c0,0,0,1.8-0.3,3l-8.1,3.6c-1.4,0.3-1.3,14.7-1.3,14.7h22.2
				c0,0,3.7-15,2.3-15.4l-7.2-3.2l-0.3-3.1L121.2,129.3z"/>
		</g>
		<g id="XMLID_2438_">
			<path id="XMLID_2439_" class="st2" d="M133.8,150.8h-22.5l0-0.2c0,0,0-3.6,0.2-7.2c0.3-7.3,1-7.6,1.3-7.6l8-3.6
				c0.2-1.2,0.2-2.9,0.2-2.9l0-0.2l7.6-0.3l0.3,3.1l7.1,3.1c0.3,0.1,1,0.4-0.5,8.1c-0.7,3.8-1.6,7.5-1.7,7.6L133.8,150.8z
				 M111.7,150.4h21.8c0.2-0.7,1-4.1,1.6-7.4c1.4-7.2,0.8-7.6,0.7-7.6l0,0l-7.3-3.2l-0.3-3l-6.9,0.3c0,0.5,0,1.9-0.3,2.9l0,0.1
				l-8.3,3.7c-0.1,0-0.7,0.5-1,7.3C111.7,146.5,111.7,149.6,111.7,150.4z"/>
		</g>
		<g id="XMLID_2436_" class="st9">
			<path id="XMLID_2437_" class="st12" d="M120.3,143.5c1.7-1.3,2.4-7.1,2.4-7.1c0.9-3.6,3.5-6.1,3.5-6.1l2.3-1.1l0-0.2l-7.2,0.3
				c0,0,0,1.8-0.3,3l-8.1,3.6c-1.4,0.3-1.3,14.7-1.3,14.7h4.9C116.4,150.6,119.2,144.4,120.3,143.5z"/>
		</g>
		<g id="XMLID_2434_">
			<path id="XMLID_2435_" class="st14" d="M124.5,141.8c0,0-3.2-10.7-3.5-9.5l-10.5,2.3c-1.4,0.3-2.5,1.4-2.9,2.7l-2.9,13.1
				c2-0.3,4.5-0.4,5.9,0.3l-2,7.4H137l-0.9-7.9c0,0,2.9-1,6.1-0.4l-0.9-12.3c-0.2-1.5-1.2-2.6-2.6-3l-10-2.6l-3.9,9.8L124.5,141.8z"
				/>
		</g>
		<g id="XMLID_2429_" class="st15">
			<g id="XMLID_2432_">
				<path id="XMLID_2433_" class="st16" d="M109.6,137.4c0.4-1.4,1.5-2.4,2.9-2.7l8.9-2c-0.2-0.4-0.3-0.6-0.4-0.4l-10.5,2.3
					c-1.4,0.3-2.5,1.4-2.9,2.7l-2.9,13.1c0.6-0.1,2.4-0.2,2.4-0.2C108.4,146.7,109.6,137.4,109.6,137.4z"/>
			</g>
			<g id="XMLID_2430_">
				<path id="XMLID_2431_" class="st16" d="M141.2,149.8c0.3,0,0.7,0.1,1,0.1l0-0.2C141.8,149.8,141.5,149.8,141.2,149.8z"/>
			</g>
		</g>
		<g id="XMLID_2427_">
			<path id="XMLID_2428_" class="st1" d="M131.7,119c-0.3-1.8-1.1-3-3.2-3.5c-1.5-0.4-3.1-0.3-4.7-0.3c-0.5,0-0.9,0-1.4,0.2
				c-1.5,0.6-1.2,2.3-1.4,3.4c-0.2,0.8-0.6,1.5-0.9,2.2c-0.5,1.5-0.4,3-0.1,4.5c0.3,1.7,0.6,4.2,2.4,5.1c2,1,4.5,0.1,6-1.4
				c1.1-1.1,2.3-3,2.4-4.5c0-1-0.1-2.1,0.3-3.1c0.2-0.4,0.4-0.8,0.5-1.2C131.8,120,131.8,119.5,131.7,119z"/>
		</g>
		<g id="XMLID_2423_">
			<path id="XMLID_2424_" class="st2" d="M124.3,131.2c-0.6,0-1.3-0.1-1.9-0.4c-1.9-0.9-2.3-3.4-2.5-5.1l0-0.1
				c-0.2-1.6-0.4-3.1,0.1-4.6c0.1-0.3,0.2-0.6,0.4-0.9c0.2-0.4,0.4-0.9,0.5-1.3c0.1-0.3,0.1-0.5,0.1-0.9c0.1-1,0.2-2.2,1.4-2.7
				c0.5-0.2,1-0.2,1.4-0.2c1.6,0,3.2-0.1,4.7,0.3c2.3,0.6,3,1.9,3.3,3.7c0.1,0.4,0.2,1,0,1.6c-0.1,0.3-0.2,0.5-0.3,0.7
				c-0.1,0.2-0.2,0.3-0.2,0.5c-0.3,0.7-0.3,1.5-0.3,2.3c0,0.3,0,0.5,0,0.8c0,1.5-1.3,3.4-2.4,4.6
				C127.5,130.4,125.9,131.2,124.3,131.2z M125.3,115.3c-0.5,0-1,0-1.5,0c-0.4,0-0.9,0-1.3,0.2c-1,0.4-1.1,1.4-1.2,2.4
				c0,0.3-0.1,0.6-0.1,0.9c-0.1,0.5-0.3,1-0.5,1.4c-0.1,0.3-0.3,0.6-0.4,0.8c-0.5,1.4-0.4,2.9-0.1,4.4l0,0.1c0.3,1.7,0.6,4,2.3,4.8
				c1.9,0.9,4.3,0,5.7-1.4c1.1-1.1,2.3-2.9,2.3-4.3c0-0.3,0-0.5,0-0.8c0-0.8,0-1.6,0.3-2.4c0.1-0.2,0.2-0.3,0.2-0.5
				c0.1-0.2,0.2-0.4,0.3-0.7c0.1-0.5,0.1-1,0-1.4v0c-0.3-1.7-0.9-2.8-3-3.4C127.5,115.4,126.4,115.3,125.3,115.3z"/>
		</g>
		<g id="XMLID_2420_" class="st9">
			<g id="XMLID_2421_">
				<path id="XMLID_2422_" class="st12" d="M126.5,115.2C126.6,115.2,126.6,115.2,126.5,115.2c-0.8-0.1-1.8-0.1-2.7-0.1
					c-0.5,0-0.9,0-1.4,0.2c-1.5,0.6-1.2,2.3-1.4,3.4c-0.2,0.8-0.6,1.5-0.9,2.2c-0.5,1.5-0.4,3-0.1,4.5c0.2,1.2,0.4,2.7,1.1,3.9
					c0.4-0.7,0.8-1.4,0.9-2.1c0-0.7,0-1.3-0.2-1.9c-0.3-0.6-0.8-1.2-0.6-1.9c0.1-0.4,0.6-0.7,0.9-1.1c1-1.4-0.8-2.8,0.5-4.4
					C123.5,116.7,125.4,116.3,126.5,115.2z"/>
			</g>
		</g>
		<g id="XMLID_2417_" class="st9">
			<g id="XMLID_2418_">
				<path id="XMLID_2419_" class="st12" d="M128.5,115.4c-0.2-0.1-0.4-0.1-0.6-0.1l-0.4,0.8c0.7,0.3,0.3,1.6,0.7,2.2
					c1,1.3-0.7,3.4-0.1,5c0.3,0.7,1.8,1.2,2.1,1.9c0.2,0.4,0.3,0.8,0.3,1.2c0.2-0.5,0.4-1,0.4-1.5c0-1-0.1-2.1,0.3-3.1
					c0.2-0.4,0.4-0.8,0.5-1.2c0.2-0.5,0.1-1,0-1.5C131.3,117.1,130.6,116,128.5,115.4z"/>
			</g>
		</g>
		<g id="XMLID_2415_">
			<path id="XMLID_2416_" class="st2" d="M135,132.3c0.2-0.4,0.2-0.8,0.2-1.2c0-1.2,0-2.5,0.1-3.7c0-0.6,0-1.2-0.1-1.7
				c-0.3-1.1-1.1-2.1-1.4-3.2c-0.2-1,0.1-2.1,0.1-3.1c0.2-2.8-2.7-5.1-5.2-5.3c-2.1-0.2-2.6,2.2-0.9,3.1c0.7,0.3,1.5,0.5,1.9,1.1
				c1,1.3-0.3,3.4,0.3,5c0.3,0.7,0.9,1.2,1.2,1.9c0.5,0.9,0.3,2.1,0.1,3.2c-0.2,1.2-0.5,2.5-0.7,3.7c-0.4,2.2,1.4,5.5,4,4.3
				c-0.5-0.6-1.1-1.3-0.8-2.2C134,133.4,134.7,132.9,135,132.3z"/>
		</g>
		<g id="XMLID_2413_">
			<path id="XMLID_2414_" class="st2" d="M125.9,112.8c-2.1-1-4.3,1.9-5.3,3.4c-1.4,2.2-2.8,4.5-3.5,7c-1,3.4-1.9,6.8-1.6,10.2
				c0.1,0.7,0.1,1.6-0.5,2.2c-0.6,0.6-1.7,0.4-2.2-0.2c-0.5-0.6-0.6-1.5-0.7-2.3c0,0.8-0.2,1.5-0.2,2.3c0,0.8,0.1,1.6,0.7,2.1
				c0.2,0.2,0.5,0.4,0.9,0.4c1.1,0.3,2.3,0,3.2-0.7c0.9-0.7,1.5-1.9,1.5-3c0-1.3-0.3-2.1,0.5-3.3c0.7-1.1,2-2.1,2.1-3.4
				c0.1-0.7,0.1-1.3,0-1.9c-0.2-0.6-0.7-1.3-0.4-1.9c0.2-0.4,0.6-0.7,0.9-1.1c1.1-1.3-0.5-2.9,0.9-4.4c1.1-1.2,3-1.3,4.2-2.3
				C127.4,114.9,126.9,113.3,125.9,112.8z"/>
		</g>
		<g id="XMLID_2411_">
			<path id="XMLID_2412_" class="st2" d="M125.8,128.4l-0.1-0.6l2.6-0.3c0.9-0.1,1.7-0.8,2-1.8l0.2-1.3l0.6,0.1l-0.2,1.3
				c-0.3,1.2-1.3,2.1-2.5,2.2L125.8,128.4z"/>
		</g>
		<g id="XMLID_2409_">
			<path id="XMLID_2410_" class="st2" d="M127,128.6l-1.4,0.1c-0.3,0-0.6-0.2-0.6-0.5l0,0c0-0.3,0.3-0.6,0.6-0.7l1.4-0.1
				c0.3,0,0.6,0.2,0.6,0.5l0,0C127.6,128.3,127.3,128.6,127,128.6z"/>
		</g>
	</g>
	<g id="XMLID_2406_" class="st9">
		<path id="XMLID_2407_" class="st10" d="M171,106.8h-31.5l-0.9,5.8c-0.3,1.7,1.1,3.3,2.8,3.3h31.9l0.9-5.4
			C174.4,108.5,172.9,106.8,171,106.8z"/>
	</g>
	<g id="XMLID_2394_">
		<g id="XMLID_2404_">
			<path id="XMLID_2405_" class="st1" d="M136.3,109l2.6-16.2c0.2-1.4,1.4-2.4,2.8-2.4h52.9c1.8,0,3.1,1.6,2.8,3.3l-2.6,16.2
				c-0.2,1.4-1.4,2.4-2.8,2.4h-52.9C137.4,112.3,136,110.7,136.3,109z"/>
		</g>
		<g id="XMLID_2399_">
			<g id="XMLID_2402_">
				<path id="XMLID_2403_" class="st6" d="M158.5,99.3l0.4-2.3c0-0.2,0.2-0.3,0.4-0.3h33.6c0.2,0,0.4,0.2,0.4,0.5l-0.4,2.3
					c0,0.2-0.2,0.3-0.4,0.3h-33.6C158.6,99.8,158.4,99.6,158.5,99.3z"/>
			</g>
			<g id="XMLID_2400_">
				<path id="XMLID_2401_" class="st2" d="M157.8,103.6l0.4-2.3c0-0.2,0.2-0.3,0.4-0.3h21.7c0.2,0,0.4,0.2,0.4,0.5l-0.4,2.3
					c0,0.2-0.2,0.3-0.4,0.3h-21.7C157.9,104.1,157.7,103.9,157.8,103.6z"/>
			</g>
		</g>
		<g id="XMLID_2395_">
			<path id="XMLID_2396_" class="st6" d="M151.9,102.7l1.4,0c0.3,0,0.5-0.2,0.6-0.5l0.3-1.7c0-0.3-0.1-0.5-0.4-0.5l-1.1,0
				c-0.2,0-0.3-0.1-0.3-0.3c0-0.1,0-0.2-0.1-0.3c0-0.2,0-0.3,0.2-0.5l0.9-0.8c0.2-0.2,0.3-0.5,0.1-0.7l-1-1.2
				c-0.2-0.2-0.5-0.2-0.7,0l-0.9,0.8c-0.1,0.1-0.3,0.2-0.5,0.1c-0.1,0-0.2-0.1-0.3-0.1c-0.1-0.1-0.2-0.2-0.2-0.4l0.2-1.1
				c0.1-0.3-0.1-0.5-0.4-0.5h-1.7c-0.3,0-0.5,0.2-0.6,0.5l-0.2,1.1c0,0.2-0.2,0.3-0.3,0.4c-0.1,0-0.2,0.1-0.3,0.1
				c-0.2,0.1-0.4,0-0.5-0.1l-0.6-0.7c-0.2-0.2-0.5-0.2-0.7,0l-1.4,1.2c-0.2,0.2-0.3,0.5-0.1,0.7l0.6,0.8c0.1,0.1,0.1,0.3,0,0.5
				c-0.1,0.1-0.1,0.2-0.2,0.3c-0.1,0.2-0.3,0.3-0.4,0.3l-1.1,0c-0.3,0-0.5,0.2-0.6,0.5l-0.3,1.7c0,0.3,0.1,0.5,0.4,0.5l1.1,0
				c0.2,0,0.3,0.1,0.3,0.3c0,0.1,0,0.2,0.1,0.3c0,0.2,0,0.3-0.2,0.5l-0.9,0.8c-0.2,0.2-0.3,0.5-0.1,0.7l1,1.2c0.2,0.2,0.5,0.2,0.7,0
				l0.9-0.8c0.1-0.1,0.3-0.2,0.5-0.1c0.1,0,0.2,0.1,0.3,0.1c0.1,0.1,0.2,0.2,0.2,0.4l-0.2,1.1c0,0.3,0.1,0.5,0.4,0.5l1.7,0
				c0.3,0,0.5-0.2,0.6-0.5l0.2-1.1c0-0.2,0.2-0.3,0.3-0.4c0.1,0,0.2-0.1,0.3-0.1c0.2-0.1,0.4,0,0.5,0.1l0.6,0.7
				c0.2,0.2,0.5,0.2,0.7,0l1.4-1.2c0.2-0.2,0.3-0.5,0.1-0.7l-0.6-0.8c-0.1-0.1-0.1-0.3,0-0.5C151.7,103,151.9,102.7,151.9,102.7z
				 M145.3,100.9c0.6-1.5,2.3-2.4,3.6-1.8c1,0.4,1.5,1.6,1,2.7c-0.6,1.5-2.3,2.4-3.6,1.8C145.3,103.2,144.9,102,145.3,100.9z"/>
		</g>
	</g>
	<g id="XMLID_2389_">
		<g id="XMLID_2392_">
			<path id="XMLID_2393_" class="st14" d="M129.9,171.1c-0.4,2.6-2.8,4.6-5.3,4.6c-2.6,0-4.3-2.1-3.9-4.6c0.4-2.6,2.8-4.6,5.3-4.6
				C128.5,166.4,130.3,168.5,129.9,171.1z"/>
		</g>
		<g id="XMLID_2390_">
			<path id="XMLID_2391_" class="st1" d="M127.1,171C127.1,171,127.1,171,127.1,171C127.1,171,127.1,171,127.1,171
				C127.1,171,127.1,171,127.1,171C127.1,170.9,127.1,170.9,127.1,171c0-0.1,0-0.1,0-0.2c0,0,0,0,0,0c0,0,0,0,0-0.1c0,0,0,0,0,0
				c0,0,0-0.1,0-0.1c0,0,0,0,0,0c0,0,0-0.1,0-0.1c0,0,0,0,0,0c0.1-0.5,0.2-1.3,0.2-1.3c0-0.1,0-0.2-0.1-0.3l-0.1-0.1l-0.5-0.5l0,0
				l-0.1-0.1c-0.1-0.1-0.2-0.1-0.2,0l-0.7,1.2c0,0,0,0.1,0,0.1c0,0,0,0.1,0,0.1c0,0,0,0,0,0l0,0l0,0c0,0,0,0,0,0c0,0,0,0,0,0
				c0,0,0.1,0.1,0.2,0.1l0,0c0.1,0.1,0.1,0.1,0.1,0.2c0,0.6-1.1,1.7-1.7,1.7c-0.1,0-0.1-0.1-0.2-0.1l0,0c-0.1-0.1-0.1-0.2-0.1-0.2
				c0,0-0.1,0-0.1,0c0,0-0.1,0-0.1,0l-1.2,0.7c-0.1,0.1-0.1,0.2,0,0.2l0.1,0.1l0.5,0.5l0.1,0.1c0,0,0.1,0.1,0.2,0.1c0,0,0.1,0,0.1,0
				c0,0,1.7-0.3,1.8-0.3C125.7,172.4,126.6,171.5,127.1,171C127.1,171,127.1,171,127.1,171C127.1,171,127.1,171,127.1,171z"/>
		</g>
	</g>
	<g id="XMLID_2384_">
		<g id="XMLID_2387_">
			<path id="XMLID_2388_" class="st6" d="M147.8,171.1c-0.4,2.6-2.8,4.6-5.3,4.6c-2.6,0-4.3-2.1-3.9-4.6c0.4-2.6,2.8-4.6,5.3-4.6
				C146.4,166.4,148.2,168.5,147.8,171.1z"/>
		</g>
		<g id="XMLID_2385_">
			<path id="XMLID_2386_" class="st1" d="M141.8,169.9C141.8,169.9,141.8,169.9,141.8,169.9C141.8,169.9,141.8,169.9,141.8,169.9
				C141.8,169.9,141.8,169.9,141.8,169.9C141.7,170,141.7,170,141.8,169.9c-0.1,0.1-0.1,0.1-0.1,0.1c0,0,0,0,0,0c0,0,0,0-0.1,0
				c0,0,0,0,0,0c0,0,0,0-0.1,0.1c0,0,0,0,0,0c0,0-0.1,0-0.1,0.1c0,0,0,0,0,0c-0.4,0.3-1,0.8-1,0.8c-0.1,0.1-0.1,0.2-0.1,0.3l0,0.1
				l0,0.6l0,0l0,0.2c0,0.1,0.1,0.2,0.2,0.2l1.3-0.4c0,0,0.1,0,0.1-0.1c0,0,0-0.1,0-0.1c0,0,0,0,0,0v0l0,0c0,0,0,0,0,0l0,0
				c0,0,0-0.1,0-0.2l0,0c0-0.1,0-0.2,0-0.2c0.4-0.4,2-0.5,2.4-0.1c0.1,0,0.1,0.2,0.1,0.2l0,0c0,0.1,0,0.2,0,0.2c0,0,0,0.1,0.1,0.1
				c0,0,0.1,0,0.1,0l1.3,0.3c0.1,0,0.2-0.1,0.2-0.2l0-0.1l0-0.7l0-0.1c0-0.1,0-0.2-0.1-0.2c0,0,0,0-0.1-0.1c0,0-1.4-1-1.5-1
				C143.7,169.9,142.5,169.9,141.8,169.9C141.9,169.9,141.8,169.9,141.8,169.9C141.8,169.9,141.8,169.9,141.8,169.9z"/>
		</g>
	</g>
	<g id="XMLID_2382_" class="st9">
		<path id="XMLID_2383_" class="st10" d="M91,132.2h-8.2l-1.9,11.4h9c0.6,0,1.2-0.4,1.3-1l1.5-8.5C92.8,133.1,92,132.2,91,132.2z"/>
	</g>
	<g id="XMLID_2364_">
		<g id="XMLID_2370_">
			<g id="XMLID_2380_">
				<path id="XMLID_2381_" class="st2" d="M43.4,140.9h43.5c0.6,0,1.2-0.4,1.3-1l1.5-8.5c0.2-0.9-0.6-1.8-1.6-1.8H44.5
					c-0.6,0-1.2,0.4-1.3,1l-1.5,8.5C41.6,140,42.4,140.9,43.4,140.9z"/>
			</g>
			<g id="XMLID_2373_">
				<g id="XMLID_2378_">
					<path id="XMLID_2379_" class="st11" d="M57.5,133.5h20.1c0.1,0,0.1,0,0.2-0.1l0.3-1c0-0.1,0-0.2-0.2-0.2H57.8
						c-0.1,0-0.1,0-0.2,0.1l-0.3,1C57.4,133.4,57.4,133.5,57.5,133.5z"/>
				</g>
				<g id="XMLID_2376_">
					<path id="XMLID_2377_" class="st1" d="M73.6,136.6h10.3c0.1,0,0.1,0,0.2-0.1l0.3-1c0-0.1,0-0.2-0.2-0.2H73.8
						c-0.1,0-0.1,0-0.2,0.1l-0.3,1C73.4,136.5,73.4,136.6,73.6,136.6z"/>
				</g>
				<g id="XMLID_2374_">
					<path id="XMLID_2375_" class="st1" d="M57.2,136.6h14.1c0.1,0,0.1,0,0.2-0.1l0.3-1c0-0.1,0-0.2-0.2-0.2H57.5
						c-0.1,0-0.1,0-0.2,0.1l-0.3,1C57,136.5,57.1,136.6,57.2,136.6z"/>
				</g>
			</g>
			<g id="XMLID_2371_">
				<path id="XMLID_2372_" class="st14" d="M50.9,131c-2.4,0-4.7,1.9-5.3,4.3c-0.6,2.4,0.9,4.3,3.3,4.3c2.4,0,4.7-1.9,5.3-4.3
					C54.7,132.9,53.2,131,50.9,131z"/>
			</g>
		</g>
		<g id="XMLID_2365_">
			<g id="XMLID_2366_">
				<path id="XMLID_2367_" class="st1" d="M49.9,136.6h-1.3l0.1-0.6c0.1-0.2,0.1-0.4,0.2-0.5c0.1-0.1,0.2-0.3,0.5-0.5l0.7-0.6
					c0.1-0.1,0.2-0.2,0.2-0.4c0-0.2,0-0.3,0-0.4c-0.1-0.1-0.2-0.2-0.3-0.2c-0.1,0-0.3,0.1-0.4,0.2c-0.1,0.1-0.2,0.3-0.3,0.5H48
					c0.2-0.6,0.5-1,0.9-1.3c0.4-0.3,0.9-0.5,1.4-0.5c0.5,0,0.9,0.1,1.2,0.4c0.3,0.3,0.3,0.7,0.2,1.2c-0.1,0.2-0.1,0.4-0.2,0.5
					c-0.1,0.1-0.1,0.2-0.2,0.2c0,0-0.1,0.1-0.2,0.2c-0.1,0.1-0.2,0.2-0.2,0.2c-0.2,0.1-0.3,0.3-0.5,0.4c-0.1,0.1-0.2,0.2-0.3,0.3
					c-0.1,0.1-0.1,0.2-0.1,0.3L49.9,136.6z M48.3,138.2c-0.1-0.1-0.1-0.3-0.1-0.5c0-0.2,0.2-0.4,0.3-0.5c0.2-0.1,0.4-0.2,0.6-0.2
					c0.2,0,0.4,0.1,0.5,0.2s0.1,0.3,0.1,0.5c0,0.2-0.2,0.4-0.3,0.5c-0.2,0.1-0.4,0.2-0.6,0.2C48.6,138.4,48.4,138.3,48.3,138.2z"/>
			</g>
		</g>
	</g>
</g>
</svg>
