<svg xmlns="http://www.w3.org/2000/svg" viewBox="0 0 537.42 509.46"><defs><style>.cls-1{opacity:0.15;}.cls-2,.cls-6,.cls-8{fill:none;}.cls-2{stroke:#262626;stroke-width:8px;}.cls-2,.cls-3,.cls-6,.cls-8{stroke-linecap:round;stroke-linejoin:round;}.cls-3,.cls-9{fill:#b3b3b3;}.cls-3{stroke:#e6e6e6;}.cls-3,.cls-6{stroke-width:3.83px;}.cls-4{fill:#fff;}.cls-5{fill:#e6e6e6;}.cls-6,.cls-8{stroke:#b3b3b3;}.cls-7{fill:#f2f2f2;}.cls-8{stroke-width:3px;}</style></defs><title>empty-search-contact</title><g id="Layer_2" data-name="Layer 2"><g id="Layer_1-2" data-name="Layer 1"><g id="_Group_" data-name="&lt;Group&gt;" class="cls-1"><line id="_Path_" data-name="&lt;Path&gt;" class="cls-2" x1="52.55" y1="505.46" x2="395.05" y2="505.46"/><rect id="_Rectangle_" data-name="&lt;Rectangle&gt;" class="cls-2" x="159.57" y="-15.14" width="104.41" height="142.7" transform="translate(267.98 -155.57) rotate(90)"/><rect id="_Rectangle_2" data-name="&lt;Rectangle&gt;" class="cls-2" x="154.35" y="17.92" width="114.86" height="76.57"/><polygon id="_Path_2" data-name="&lt;Path&gt;" class="cls-2" points="175 79.14 193.22 47.57 211.45 79.14 175 79.14"/><polyline id="_Path_3" data-name="&lt;Path&gt;" class="cls-2" points="202.34 63.35 214.47 42.35 235.71 79.14 211.45 79.14"/><circle id="_Path_4" data-name="&lt;Path&gt;" class="cls-2" cx="243.83" cy="39.45" r="8.12"/><polyline id="_Path_5" data-name="&lt;Path&gt;" class="cls-2" points="533.42 136.42 454.07 136.42 454.07 175.1 533.42 175.1"/><line id="_Path_6" data-name="&lt;Path&gt;" class="cls-2" x1="374.72" y1="175.1" x2="454.07" y2="175.1"/><line id="_Path_7" data-name="&lt;Path&gt;" class="cls-2" x1="454.07" y1="136.42" x2="423.68" y2="136.42"/><rect id="_Rectangle_3" data-name="&lt;Rectangle&gt;" class="cls-2" x="414.39" y="175.1" width="79.35" height="38.68" transform="translate(908.14 388.88) rotate(-180)"/><polyline id="_Path_8" data-name="&lt;Path&gt;" class="cls-2" points="521.08 213.97 454.07 213.97 454.07 252.65 479.74 252.65"/><rect id="_Rectangle_4" data-name="&lt;Rectangle&gt;" class="cls-2" x="374.72" y="213.97" width="79.35" height="38.68" transform="translate(828.79 466.62) rotate(-180)"/></g><g id="Search_user" data-name="Search user"><polygon class="cls-3" points="379.12 394.18 348.99 424.31 261.94 338.4 292.07 308.27 379.12 394.18"/><path class="cls-4" d="M50.43,96.75a165.65,165.65,0,1,0,234.26,0A165.66,165.66,0,0,0,50.43,96.75ZM263.79,310.11a136.08,136.08,0,1,1,0-192.44A136.08,136.08,0,0,1,263.79,310.11Z"/><path class="cls-5" d="M55.54,112.08a158.42,158.42,0,1,0,224,0A158.43,158.43,0,0,0,55.54,112.08Zm208.25,198a136.08,136.08,0,1,1,0-192.44A136.08,136.08,0,0,1,263.79,310.11Z"/><path class="cls-6" d="M53.45,93.8l-.56.54M39.7,108.56a165.54,165.54,0,1,0,46-38.74m51.87,276.83a136,136,0,1,1,69.2-2.43"/><path class="cls-4" d="M426.08,471.26h0a34.36,34.36,0,0,1-48.58,0l-98.07-96.92L328,325.76l98.07,96.93A34.35,34.35,0,0,1,426.08,471.26Z"/><path class="cls-5" d="M419,478.36h0c-9.58,9.58-27.25,7.45-39.47-4.76l-89.19-88.37L325,350.52l89.19,88.37C426.44,451.1,428.57,468.77,419,478.36Z"/><path class="cls-6" d="M358.73,356.13l67.35,66.56a34.35,34.35,0,0,1,0,48.57h0a34.36,34.36,0,0,1-48.58,0l-98.07-96.92L328,325.76l8.66,8.57"/><path class="cls-4" d="M126.56,191a42,42,0,1,0-4.9-19.69,42,42,0,0,0,4.9,19.69"/><circle class="cls-7" cx="170.39" cy="178.07" r="35.2"/><path class="cls-4" d="M210.33,219.68c19.25,14.63,33.35,33.9,33.35,56.54,0,7-7,7-7,7h-136s-7,0-7-7c0-29,23.11-52.44,50.53-67.71"/><path class="cls-7" d="M158.53,219.26c-25.41,8.75-43.26,33.15-43.26,58,0,6,6,6,6,6H237.69s6,0,6-6c0-19.39-8.94-37.12-24.54-50.72-4.92-4.3-9.92-8.19-16.12-10.52-13.75-5.16-29.19-1.81-42.67,2.65Z"/><path class="cls-6" d="M144.21,208.52A41.94,41.94,0,1,0,123.94,185"/><path class="cls-6" d="M210.33,219.68c19.25,14.63,33.35,33.9,33.35,56.54,0,7-7,7-7,7h-136s-7,0-7-7c0-29,23.11-52.44,50.53-67.71"/><g id="Junk_Food" data-name="Junk Food"><circle class="cls-4" cx="236.68" cy="275.39" r="35.29"/><circle class="cls-5" cx="236.68" cy="275.39" r="35.29"/><path class="cls-8" d="M271.67,279.92a35.27,35.27,0,1,1-20.83-36.86"/><path class="cls-8" d="M265.81,255.47a35.32,35.32,0,0,1,4.14,8.15"/><path class="cls-4" d="M249.21,293a5.33,5.33,0,0,1-3.79-1.57l-8.65-8.65-8.64,8.65a5.35,5.35,0,1,1-7.57-7.57l8.64-8.64-8.64-8.65a5.35,5.35,0,1,1,7.57-7.57l8.64,8.65,8.65-8.65a5.35,5.35,0,1,1,7.57,7.57l-8.65,8.65,8.65,8.64a5.36,5.36,0,0,1-3.78,9.14Z"/><path class="cls-9" d="M249.21,258.93a3.86,3.86,0,0,1,2.72,6.58l-9.71,9.7,9.71,9.71a3.85,3.85,0,1,1-5.45,5.45l-9.71-9.71-9.7,9.71a3.85,3.85,0,0,1-5.45-5.45l9.7-9.71-9.7-9.7a3.85,3.85,0,1,1,5.45-5.45l9.7,9.71,9.71-9.71a3.85,3.85,0,0,1,2.73-1.13m0-3a6.79,6.79,0,0,0-4.85,2l-7.59,7.58-7.58-7.58a6.85,6.85,0,1,0-9.69,9.69l7.58,7.58-7.58,7.59a6.85,6.85,0,1,0,9.69,9.69l7.58-7.58,7.59,7.58a6.85,6.85,0,1,0,9.69-9.69l-7.59-7.59,7.59-7.58a6.86,6.86,0,0,0-4.84-11.7Z"/></g></g></g></g></svg>